<svg xmlns="http://www.w3.org/2000/svg" viewBox="0 0 415 120" fill="none">
  <defs>
    <!-- ВЕРХНЯЯ ПОЛОСА -->
    <linearGradient id="dtB" x1="0" y1="0" x2="0" y2="1">
      <stop offset="0%"   stop-color="#B8DCFF" stop-opacity="0.55"/>
      <stop offset="40%"  stop-color="#7EC8FF" stop-opacity="0.45"/>
      <stop offset="100%" stop-color="#4AAEFF" stop-opacity="0.35"/>
    </linearGradient>
    <linearGradient id="dtSh" x1="0" y1="0" x2="0" y2="1">
      <stop offset="0%"   stop-color="#FFFFFF" stop-opacity="0.90"/>
      <stop offset="60%"  stop-color="#FFFFFF" stop-opacity="0.30"/>
      <stop offset="100%" stop-color="#FFFFFF" stop-opacity="0.00"/>
    </linearGradient>
    <linearGradient id="dtBd" x1="0" y1="0" x2="0" y2="1">
      <stop offset="0%"   stop-color="#FFFFFF" stop-opacity="0.80"/>
      <stop offset="100%" stop-color="#5AAEFF" stop-opacity="0.30"/>
    </linearGradient>
    <linearGradient id="dtIn" x1="0" y1="0" x2="0" y2="1">
      <stop offset="0%"   stop-color="#FFFFFF" stop-opacity="0.00"/>
      <stop offset="100%" stop-color="#1A5FBF" stop-opacity="0.20"/>
    </linearGradient>

    <!-- ЦЕНТРАЛЬНАЯ ПОЛОСА -->
    <linearGradient id="dmB" x1="0" y1="0" x2="1" y2="0">
      <stop offset="0%"   stop-color="#1060E8"/>
      <stop offset="30%"  stop-color="#1E8FFF"/>
      <stop offset="65%"  stop-color="#00D4FF"/>
      <stop offset="100%" stop-color="#00F0E0"/>
    </linearGradient>
    <linearGradient id="dmSh" x1="0" y1="0" x2="0" y2="1">
      <stop offset="0%"   stop-color="#FFFFFF" stop-opacity="0.75"/>
      <stop offset="45%"  stop-color="#FFFFFF" stop-opacity="0.20"/>
      <stop offset="100%" stop-color="#FFFFFF" stop-opacity="0.00"/>
    </linearGradient>
    <linearGradient id="dmBd" x1="0" y1="0" x2="0" y2="1">
      <stop offset="0%"   stop-color="#FFFFFF" stop-opacity="0.90"/>
      <stop offset="100%" stop-color="#0050CC" stop-opacity="0.40"/>
    </linearGradient>
    <radialGradient id="dmLG" cx="0.12" cy="0.5" r="0.35">
      <stop offset="0%"   stop-color="#FFFFFF" stop-opacity="0.60"/>
      <stop offset="100%" stop-color="#FFFFFF" stop-opacity="0.00"/>
    </radialGradient>
    <linearGradient id="dmIn" x1="0" y1="0" x2="0" y2="1">
      <stop offset="0%"   stop-color="#FFFFFF" stop-opacity="0.00"/>
      <stop offset="100%" stop-color="#003399" stop-opacity="0.25"/>
    </linearGradient>

    <!-- НИЖНЯЯ ПОЛОСА -->
    <linearGradient id="dbB" x1="0" y1="0" x2="0" y2="1">
      <stop offset="0%"   stop-color="#A0CCFF" stop-opacity="0.50"/>
      <stop offset="50%"  stop-color="#6ABAFF" stop-opacity="0.40"/>
      <stop offset="100%" stop-color="#3A9AEE" stop-opacity="0.32"/>
    </linearGradient>
    <linearGradient id="dbSh" x1="0" y1="0" x2="0" y2="1">
      <stop offset="0%"   stop-color="#FFFFFF" stop-opacity="0.80"/>
      <stop offset="55%"  stop-color="#FFFFFF" stop-opacity="0.18"/>
      <stop offset="100%" stop-color="#FFFFFF" stop-opacity="0.00"/>
    </linearGradient>
    <linearGradient id="dbBd" x1="0" y1="0" x2="0" y2="1">
      <stop offset="0%"   stop-color="#FFFFFF" stop-opacity="0.70"/>
      <stop offset="100%" stop-color="#4488CC" stop-opacity="0.25"/>
    </linearGradient>
    <linearGradient id="dbIn" x1="0" y1="0" x2="0" y2="1">
      <stop offset="0%"   stop-color="#FFFFFF" stop-opacity="0.00"/>
      <stop offset="100%" stop-color="#1A4A99" stop-opacity="0.18"/>
    </linearGradient>

    <clipPath id="dcT"><rect x="8.0" y="26.00" width="90.0" height="18.0" rx="9.0"/></clipPath>
    <clipPath id="dcM"><rect x="8.0" y="51.00" width="90.0" height="18.0" rx="9.0"/></clipPath>
    <clipPath id="dcB"><rect x="8.0" y="76.00" width="90.0" height="18.0" rx="9.0"/></clipPath>
  </defs>

  <!-- ВЕРХНЯЯ ПОЛОСА -->
  <rect x="8.0" y="26.00" width="90.0" height="18.0" rx="9.0" fill="url(#dtB)"/>
  <rect x="8.0" y="26.00" width="90.0" height="18.0" rx="9.0" fill="url(#dtIn)" clip-path="url(#dcT)"/>
  <rect x="8.0" y="26.00" width="90.0" height="18.0" rx="9.0" fill="none" stroke="url(#dtBd)" stroke-width="0.8"/>
  <rect x="9.50" y="27.50" width="87.00" height="7.56" rx="3.78" fill="url(#dtSh)" clip-path="url(#dcT)"/>

  <!-- ЦЕНТРАЛЬНАЯ ПОЛОСА -->
  <rect x="8.0" y="51.00" width="90.0" height="18.0" rx="9.0" fill="url(#dmB)"/>
  <rect x="8.0" y="51.00" width="90.0" height="18.0" rx="9.0" fill="url(#dmIn)" clip-path="url(#dcM)"/>
  <rect x="8.0" y="51.00" width="90.0" height="18.0" rx="9.0" fill="none" stroke="url(#dmBd)" stroke-width="0.8"/>
  <rect x="9.50" y="52.50" width="87.00" height="7.56" rx="3.78" fill="url(#dmSh)" clip-path="url(#dcM)"/>
  <rect x="8.0" y="51.00" width="90.0" height="18.0" rx="9.0" fill="url(#dmLG)" clip-path="url(#dcM)"/>

  <!-- НИЖНЯЯ ПОЛОСА -->
  <rect x="8.0" y="76.00" width="90.0" height="18.0" rx="9.0" fill="url(#dbB)"/>
  <rect x="8.0" y="76.00" width="90.0" height="18.0" rx="9.0" fill="url(#dbIn)" clip-path="url(#dcB)"/>
  <rect x="8.0" y="76.00" width="90.0" height="18.0" rx="9.0" fill="none" stroke="url(#dbBd)" stroke-width="0.8"/>
  <rect x="9.50" y="77.50" width="87.00" height="7.56" rx="3.78" fill="url(#dbSh)" clip-path="url(#dcB)"/>

  <!-- БУКВЫ ELTERA (Manrope Bold 700) -->
  <path d="M125.02444444444444 94.0V42.32H158.4011111111111V50.430888888888894H133.67366666666666V63.17144444444445H154.09444444444443V71.28233333333333H133.67366666666666V85.8891111111111H158.4011111111111V94.0Z M171.73222222222222 94.0V42.32H180.38144444444444V85.8891111111111H203.2067777777778V94.0Z M225.72544444444443 94.0V50.430888888888894H209.0012222222222V42.32H251.09888888888887V50.430888888888894H234.37466666666666V94.0Z M260.8411111111111 94.0V42.32H294.21777777777777V50.430888888888894H269.49033333333335V63.17144444444445H289.9111111111111V71.28233333333333H269.49033333333335V85.8891111111111H294.21777777777777V94.0Z M306.8311111111111 94.0V42.32H328.185Q328.9386666666667 42.32 330.12300000000005 42.37383333333334Q331.30733333333336 42.42766666666667 332.3122222222222 42.60711111111112Q336.79833333333335 43.289 339.72327777777775 45.58588888888889Q342.6482222222222 47.88277777777778 344.06583333333333 51.38194444444444Q345.48344444444444 54.88111111111111 345.48344444444444 59.15188888888889Q345.48344444444444 65.46833333333333 342.28933333333333 70.00827777777778Q339.0952222222222 74.54822222222222 332.4916666666667 75.62488888888889L328.7951111111111 75.94788888888888H315.48033333333336V94.0ZM336.5112222222222 94.0 326.31877777777777 72.96911111111112 335.1115555555556 71.03111111111112 346.3088888888889 94.0ZM315.48033333333336 67.8728888888889H327.8261111111111Q328.5438888888889 67.8728888888889 329.4411111111111 67.80111111111111Q330.33833333333337 67.72933333333333 331.092 67.51400000000001Q333.24533333333335 66.97566666666667 334.48350000000005 65.6118888888889Q335.7216666666667 64.24811111111111 336.24205555555557 62.525444444444446Q336.76244444444444 60.80277777777778 336.76244444444444 59.15188888888889Q336.76244444444444 57.501000000000005 336.24205555555557 55.7603888888889Q335.7216666666667 54.01977777777778 334.48350000000005 52.656000000000006Q333.24533333333335 51.29222222222222 331.092 50.753888888888895Q330.33833333333337 50.53855555555556 329.4411111111111 50.48472222222223Q328.5438888888889 50.430888888888894 327.8261111111111 50.430888888888894H315.48033333333336Z M354.61555555555555 94.0 370.9091111111111 42.32H383.5778888888889L399.8714444444445 94.0H390.971L376.18477777777775 47.63155555555556H378.1227777777778L363.516 94.0 Z" fill="#FFFFFF" fill-rule="nonzero"/>

</svg>