<svg xmlns="http://www.w3.org/2000/svg" viewBox="0 0 382 100" fill="none">
  <defs>
    <linearGradient id="ltF" x1="0" y1="0" x2="0" y2="1">
      <stop offset="0%" stop-color="#C8E8FF" stop-opacity="0.35"/>
      <stop offset="50%" stop-color="#A8D8FF" stop-opacity="0.22"/>
      <stop offset="100%" stop-color="#5BBFFF" stop-opacity="0.38"/>
    </linearGradient>
    <linearGradient id="ltS" x1="0" y1="0" x2="0" y2="1">
      <stop offset="0%" stop-color="#FFFFFF" stop-opacity="0.65"/>
      <stop offset="45%" stop-color="#FFFFFF" stop-opacity="0.12"/>
      <stop offset="100%" stop-color="#FFFFFF" stop-opacity="0.00"/>
    </linearGradient>
    <linearGradient id="ltB" x1="0" y1="0" x2="0" y2="1">
      <stop offset="0%" stop-color="#FFFFFF" stop-opacity="0.55"/>
      <stop offset="100%" stop-color="#60AAEE" stop-opacity="0.22"/>
    </linearGradient>
    <linearGradient id="lmF" x1="0" y1="0" x2="1" y2="0">
      <stop offset="0%" stop-color="#1F7BFF"/>
      <stop offset="45%" stop-color="#22D4FF"/>
      <stop offset="100%" stop-color="#63F3DA"/>
    </linearGradient>
    <linearGradient id="lmS" x1="0" y1="0" x2="0" y2="1">
      <stop offset="0%" stop-color="#FFFFFF" stop-opacity="0.52"/>
      <stop offset="50%" stop-color="#FFFFFF" stop-opacity="0.10"/>
      <stop offset="100%" stop-color="#FFFFFF" stop-opacity="0.00"/>
    </linearGradient>
    <linearGradient id="lmB" x1="0" y1="0" x2="0" y2="1">
      <stop offset="0%" stop-color="#FFFFFF" stop-opacity="0.65"/>
      <stop offset="100%" stop-color="#1F7BFF" stop-opacity="0.30"/>
    </linearGradient>
    <linearGradient id="lbF" x1="0" y1="0" x2="0" y2="1">
      <stop offset="0%" stop-color="#7ECFFF" stop-opacity="0.26"/>
      <stop offset="50%" stop-color="#A8D8FF" stop-opacity="0.18"/>
      <stop offset="100%" stop-color="#FFFFFF" stop-opacity="0.12"/>
    </linearGradient>
    <linearGradient id="lbS" x1="0" y1="0" x2="0" y2="1">
      <stop offset="0%" stop-color="#FFFFFF" stop-opacity="0.40"/>
      <stop offset="50%" stop-color="#FFFFFF" stop-opacity="0.07"/>
      <stop offset="100%" stop-color="#FFFFFF" stop-opacity="0.00"/>
    </linearGradient>
    <clipPath id="lcT"><rect x="18" y="17" width="70" height="16" rx="8"/></clipPath>
    <clipPath id="lcM"><rect x="18" y="42" width="70" height="16" rx="8"/></clipPath>
    <clipPath id="lcB"><rect x="18" y="67" width="70" height="16" rx="8"/></clipPath>
  </defs>

  <!-- ЗНАК: три полосы Liquid Glass -->
  <rect x="18" y="17" width="70" height="16" rx="8" fill="url(#ltF)"/>
  <rect x="18" y="17" width="70" height="16" rx="8" fill="none" stroke="url(#ltB)" stroke-width="0.8"/>
  <rect x="20" y="18" width="66" height="7" rx="3.5" fill="url(#ltS)" clip-path="url(#lcT)"/>
  <rect x="18" y="42" width="70" height="16" rx="8" fill="url(#lmF)"/>
  <rect x="18" y="42" width="70" height="16" rx="8" fill="none" stroke="url(#lmB)" stroke-width="0.8"/>
  <rect x="20" y="43" width="66" height="7" rx="3.5" fill="url(#lmS)" clip-path="url(#lcM)"/>
  <rect x="18" y="67" width="70" height="16" rx="8" fill="url(#lbF)"/>
  <rect x="18" y="67" width="70" height="16" rx="8" fill="none" stroke="url(#ltB)" stroke-width="0.8"/>
  <rect x="20" y="68" width="66" height="7" rx="3.5" fill="url(#lbS)" clip-path="url(#lcB)"/>

  <!-- БУКВЫ: Manrope SemiBold (path из шрифта) -->
  <path d="M123.05555555555556 76.0V24.000000000000007H154.83333333333331V27.03333333333334H126.08888888888889V48.483333333333334H150.5V51.516666666666666H126.08888888888889V72.96666666666667H154.83333333333331V76.0Z M165.30555555555554 76.0V24.000000000000007H168.33888888888887V72.96666666666667H194.19444444444443V76.0Z M216.14999999999998 76.0V27.03333333333334H197.08333333333331V24.000000000000007H238.24999999999997V27.03333333333334H219.1833333333333V76.0Z M245.1111111111111 76.0V24.000000000000007H276.88888888888886V27.03333333333334H248.14444444444445V48.483333333333334H272.55555555555554V51.516666666666666H248.14444444444445V72.96666666666667H276.88888888888886V76.0Z M286.63888888888886 76.0V24.000000000000007H305.77777777777777Q306.5361111111111 24.000000000000007 307.3305555555555 24.054166666666674Q308.125 24.10833333333334 309.09999999999997 24.28888888888889Q312.85555555555555 24.866666666666674 315.61805555555554 27.015277777777783Q318.38055555555553 29.16388888888889 319.8791666666666 32.43194444444445Q321.37777777777774 35.7 321.37777777777774 39.6Q321.37777777777774 45.16111111111111 318.34444444444443 49.35Q315.3111111111111 53.53888888888889 310.1111111111111 54.69444444444444L309.5333333333333 55.2H289.6722222222222V76.0ZM319.2111111111111 76.0 308.9555555555555 54.83888888888889 311.55555555555554 52.88888888888889 322.8222222222222 76.0ZM289.6722222222222 52.16666666666667H305.77777777777777Q306.39166666666665 52.16666666666667 307.24027777777775 52.09444444444445Q308.08888888888885 52.022222222222226 308.9555555555555 51.87777777777778Q311.9527777777778 51.3 313.99305555555554 49.49444444444444Q316.0333333333333 47.68888888888889 317.0805555555555 45.10694444444445Q318.12777777777774 42.525000000000006 318.12777777777774 39.6Q318.12777777777774 36.675000000000004 317.0805555555555 34.09305555555556Q316.0333333333333 31.511111111111113 313.99305555555554 29.70555555555556Q311.9527777777778 27.900000000000006 308.9555555555555 27.32222222222223Q308.08888888888885 27.141666666666673 307.24027777777775 27.087500000000006Q306.39166666666665 27.03333333333334 305.77777777777777 27.03333333333334H289.6722222222222Z M328.2388888888889 76.0 347.1611111111111 24.000000000000007H350.4111111111111L369.3333333333333 76.0H366.0833333333333L347.66666666666663 25.372222222222227H349.8333333333333L331.4888888888889 76.0 Z" fill="#0B1730" fill-rule="nonzero"/>

</svg>