<svg viewBox="804.76 884.61 466.47 463.43" fill="none" xmlns="http://www.w3.org/2000/svg">
<path d="M1006.12 1128.62C1007.7 1130.19 1008.58 1132.33 1008.58 1134.56V1339.71C1008.58 1344.77 1004.14 1348.69 999.149 1347.86C888.829 1329.36 804.764 1233.42 804.764 1117.84C804.764 1067.74 820.562 1021.33 847.447 983.322C850.375 979.181 856.306 978.805 859.892 982.391L1006.12 1128.62Z" fill="#806AF0"/>
<path d="M1174.12 1295.97C1177.41 1299.6 1176.9 1305.28 1172.91 1308.12C1144.71 1328.15 1111.87 1342.07 1076.32 1347.95C1071.52 1348.74 1067.18 1345.12 1066.9 1340.26L1058.28 1190C1057.82 1182.08 1067.59 1178 1072.91 1183.89L1174.12 1295.97Z" fill="black"/>
<path d="M1215.67 981.776C1219.24 978.198 1225.16 978.564 1228.1 982.685C1255.26 1020.82 1271.23 1067.46 1271.23 1117.84C1271.23 1168.5 1255.08 1215.39 1227.64 1253.64C1224.7 1257.74 1218.8 1258.09 1215.23 1254.52L1085.02 1124.31C1081.74 1121.03 1081.74 1115.71 1085.02 1112.43L1215.67 981.776Z" fill="#06D7F5"/>
<path d="M1038 884.61C1088.38 884.61 1135.03 900.586 1173.16 927.745C1177.28 930.68 1177.64 936.596 1174.07 940.175L1043.42 1070.83C1040.13 1074.11 1034.81 1074.11 1031.53 1070.83L901.317 940.612C897.746 937.042 898.102 931.141 902.205 928.198C940.451 900.763 987.338 884.61 1038 884.61Z" fill="black"/>
</svg>
